# xmcd
#
# Track frame offsets:
#	150
#	10137
#	22325
#	35377
#	44552
#	57455
#	70345
#	82772
#	92660
#	102642
#	118395
#	129637
#	141657
#	154255
#	164952
#	174472
#	189335
#	203882
#	207765
#	221817
#
# Disc length: 3151
#
# Revision: 1
# Processed by: cddbd v1.5.1PL0 Copyright (c) Steve Scherf et al.
# Submitted via: dBpowerAMP V4.0
# Normalized: r0:TDELIM( - )
#
DISCID=390c4d14
DTITLE=Various Artist - The Club - Blues 1.
DYEAR=1900
DGENRE=Blues
TTITLE0=John Lee Hooker - Dimples
TTITLE1=Howlin' Wolf - Brown Skinned Woman
TTITLE2=Leadbelly - CC Rider
TTITLE3=Memphis Slim - How Long Blues
TTITLE4=Billie Holiday - I Got a Right to Sing the Blues
TTITLE5=Louis Armstrong - St. Louis Blues
TTITLE6=Jack Dupree - Overhead Blues
TTITLE7=Jimmy Witherspoon - Have a Ball
TTITLE8=Jimmy Rushing - She's Mine She's Yours
TTITLE9=Memphis Slim - Three Women Blues
TTITLE10=Big Joe Williams - Jinx Blues
TTITLE11=Sonny Terry - Harmonica Hop
TTITLE12=Jabo Williams - Pratt City Blues
TTITLE13=Smokey Hogg - Little School Girl
TTITLE14=Lowell Fulson - Everyday I Have the Blues
TTITLE15=Rosevelt Sykes - Out on a Limb
TTITLE16=Bessie Smith - Mean Old Bedbug Blues
TTITLE17=Leadbelly - Bring me Lil Water Silvy
TTITLE18=Billie Holiday - Billies Blues
TTITLE19=Big Bill Broonzy - Baby Please Don't Go
EXTD=
EXTT0=
EXTT1=
EXTT2=
EXTT3=
EXTT4=
EXTT5=
EXTT6=
EXTT7=
EXTT8=
EXTT9=
EXTT10=
EXTT11=
EXTT12=
EXTT13=
EXTT14=
EXTT15=
EXTT16=
EXTT17=
EXTT18=
EXTT19=
PLAYORDER=
